<svg width="48" height="48" xmlns="http://www.w3.org/2000/svg" viewBox="0 0 100 100" preserveAspectRatio="xMidYMid" class="uil-gears"><path fill="none" class="bk" d="M0 0h100v100H0z"/><path d="M59.9 32.6c.1-.8.1-1.7.1-2.6s0-1.8-.1-2.6l-5.1-.4c-.3-2.4-.9-4.6-1.8-6.7l4.2-2.9c-.7-1.6-1.6-3.1-2.6-4.5L50 15c-1.4-1.9-3.1-3.5-4.9-4.9l2.2-4.6c-1.4-1-2.9-1.9-4.5-2.6l-3 4.1c-2.1-.9-4.4-1.5-6.7-1.8L32.7.1C31.8 0 30.9 0 30 0s-1.8 0-2.6.1L27 5.2c-2.4.3-4.6.9-6.7 1.8l-2.9-4.1c-1.6.7-3.1 1.6-4.5 2.6l2.1 4.6c-1.9 1.4-3.5 3.1-5 4.9l-4.5-2.1c-1 1.4-1.9 2.9-2.6 4.5L7 20.3c-.9 2.1-1.5 4.4-1.8 6.8l-5 .4C0 28.2 0 29.1 0 30s0 1.8.1 2.6l5 .4c.3 2.4.9 4.7 1.8 6.8l-4.1 2.9c.7 1.6 1.6 3.1 2.6 4.5l4.5-2.1c1.4 1.9 3.1 3.5 5 4.9l-2.1 4.6c1.4 1 2.9 1.9 4.5 2.6l2.9-4.1c2.1.9 4.4 1.5 6.7 1.8l.4 5.1H30c.9 0 1.8 0 2.6-.1l.4-5.1c2.3-.3 4.6-.9 6.7-1.8l2.9 4.2c1.6-.7 3.1-1.6 4.5-2.6L45 49.9c1.9-1.4 3.5-3 4.9-4.9l4.6 2.2c1-1.4 1.9-2.9 2.6-4.5L53 39.8c.9-2.1 1.5-4.4 1.8-6.7l5.1-.5zM30 45c-8.3 0-15-6.7-15-15s6.7-15 15-15 15 6.7 15 15-6.7 15-15 15z" fill="#fff"><animateTransform attributeName="transform" type="rotate" from="90 50 50" to="0 50 50" dur=".5s" repeatCount="indefinite"/></path><path d="M98.208 80.25c.304-.747.537-1.616.77-2.485s.466-1.74.576-2.538l-4.823-1.706a24.526 24.526 0 0 0-.004-6.938l4.807-1.714c-.262-1.726-.743-3.408-1.346-5.02l-4.987.838c-.86-2.197-2.089-4.183-3.465-6l3.316-3.875c-1.094-1.328-2.31-2.585-3.674-3.676l-3.96 3.184c-1.795-1.413-3.86-2.588-6.005-3.473l.934-5.03c-.844-.329-1.713-.562-2.582-.795s-1.74-.466-2.538-.576l-1.706 4.823a24.526 24.526 0 0 0-6.938.004l-1.74-4.71c-1.726.261-3.408.742-5.02 1.346l.839 4.987c-2.198.86-4.183 2.088-6.098 3.439l-3.803-3.193c-1.329 1.093-2.586 2.309-3.676 3.673l3.21 3.863c-1.414 1.795-2.588 3.862-3.5 6.102l-4.933-.908c-.374.625-.607 1.494-.84 2.363s-.466 1.74-.576 2.538l4.726 1.68c-.331 2.396-.347 4.773-.021 7.034l-4.711 1.74c.262 1.727.743 3.409 1.347 5.02l4.89-.864c.86 2.198 2.088 4.183 3.561 6.027l-3.219 3.9c1.094 1.328 2.31 2.586 3.674 3.676l3.862-3.21c1.796 1.413 3.862 2.588 6.006 3.473l-.934 5.03 2.608.699c.868.233 1.74.466 2.538.576l1.706-4.823c2.3.306 4.676.322 6.938-.004l1.714 4.807c1.726-.262 3.408-.743 5.02-1.346l-.813-5.084a22.77 22.77 0 0 0 6.002-3.465l3.873 3.316c1.329-1.093 2.586-2.31 3.677-3.674l-3.21-3.862c1.413-1.796 2.588-3.862 3.473-6.006l5.055.837zm-32.09 4.239A14.98 14.98 0 0 1 55.51 66.118C57.66 58.1 65.865 53.363 73.882 55.51S86.637 65.865 84.49 73.882A14.98 14.98 0 0 1 66.118 84.49z" fill="#c2c2c2"><animateTransform attributeName="transform" type="rotate" from="0 50 50" to="90 50 50" dur=".5s" repeatCount="indefinite"/></path></svg>